# xmcd
#
# Track frame offsets:
#	150
#	18602
#	44818
#	74120
#	90603
#	108849
#	126617
#	149805
#	174499
#	195304
#
# Disc length: 2864 seconds
#
# Revision: 1
# Processed by: cddbd v1.5.1PL2 Copyright (c) Steve Scherf et al.
# Submitted via: audiograbber 1.83.01
#
DISCID=9e0b2e0a
DTITLE=θεμα - Lounge 2
DYEAR=1900
DGENRE=
TTITLE0=Jask - Beautiful
TTITLE1=Sherrie Lea - No Ordinary Love
TTITLE2=Iio - Rapture
TTITLE3=Tereza - Its Impossible
TTITLE4=Luiz - Cant Get Enough Of Your Love
TTITLE5=Neverland - Summer Thoughts
TTITLE6=Makis Soulis - Thoughts About Your Self
TTITLE7=Antaeus - Time
TTITLE8=C:Real - Its No Surprises
TTITLE9=Makis Soulis - Sweet Memories
EXTD=
EXTT0=
EXTT1=
EXTT2=
EXTT3=
EXTT4=
EXTT5=
EXTT6=
EXTT7=
EXTT8=
EXTT9=
PLAYORDER=
